# xmcd
#
# Track frame offsets: 
#        150
#        9742
#        26291
#        41953
#        60965
#        83106
#        97941
#        129314
#        141481
#        156607
#        173420
#        187571
#        201307
#        212655
#        222219
#
# Disc length: 3182 seconds
#
# Revision: 0
# Processed by: cddbd v1.5.2PL0 Copyright (c) Steve Scherf et al.
# Submitted via: ExactAudioCopyFreeDBPlugin 1.0
#
DISCID=c60c6c0f
DTITLE=Various Artist - Oh Happy Day-Black Gospel CD 1
DYEAR=2014
DGENRE=Gospel
TTITLE0=Edwin Hawkins  - Oh happy day 
TTITLE1=Andrae Crouch  - Can't nobody do me like Jesus 
TTITLE2=Felicia Taylor  - Celebration 
TTITLE3=Richard Broadnax and the Zion Gospel Singers  - Takin it to th
TTITLE3=e streets 
TTITLE4=Richard Broadnax and the Zion Gospel Singers  - Bridge over tr
TTITLE4=oubled water 
TTITLE5=Felicia Taylor  - Glorious party 
TTITLE6=Richard Broadnax and the Zion Gospel Singers  - Have you told 
TTITLE7=Temple Singers Norbert Kanthak-Dittmer  - Joshua fought the ba
TTITLE7=ttle of Jericho 
TTITLE8=St. Anna Choir, St. Paul Choir, Josef Hansen  - Our father 
TTITLE9=Felicia Taylor, Temple Singers, Josef Hansen  - Swing low, swe
TTITLE9=et chariot 
TTITLE10=Josef Hansen Temple Singers  - Where you there 
TTITLE11=Golden Gate Quartet  - My lord is writing all the time 
TTITLE12=Mahalia Jackson  - Jesus met the woman 
TTITLE13=Golden Gate Quartet  - Rock my soul 
TTITLE14=Ken Taylor Felicia Taylor  - Carry me 
EXTD=
EXTT0=
EXTT1=
EXTT2=
EXTT3=
EXTT4=
EXTT5=
EXTT6=
EXTT7=
EXTT8=
EXTT9=
EXTT10=
EXTT11=
EXTT12=
EXTT13=
EXTT14=
PLAYORDER=
